<svg xmlns="http://www.w3.org/2000/svg" xmlns:xlink="http://www.w3.org/1999/xlink" width="28" height="22" viewBox="0 0 28 22">
  <defs>
    <clipPath id="clip-headphones">
      <rect width="28" height="22" />
    </clipPath>
  </defs>
  <g id="headphones" clip-path="url(#clip-headphones)">
    <g id="Group_2" data-name="Group 2" transform="translate(-3680 -609)">
      <path id="Subtraction_1" data-name="Subtraction 1" d="M5,12H5A5.274,5.274,0,0,1,0,6.5,5.274,5.274,0,0,1,5,1V12Z" transform="translate(3680 619)" />
      <rect id="Rectangle_18" data-name="Rectangle 18" width="2" height="11" transform="translate(3686 620)" />
      <path id="Subtraction_5" data-name="Subtraction 5" d="M1.243,12H.045C.015,11.67,0,11.334,0,11A11,11,0,0,1,18.778,3.222,10.925,10.925,0,0,1,22,11c0,.331-.015.667-.045,1h-1.2a14.108,14.108,0,0,0-2.685-6.241A8.982,8.982,0,0,0,11,2,8.982,8.982,0,0,0,3.929,5.759,14.109,14.109,0,0,0,1.243,12Z" transform="translate(3683 609)" />
      <path id="Subtraction_6" data-name="Subtraction 6" d="M5,0H5A5.274,5.274,0,0,0,0,5.5,5.274,5.274,0,0,0,5,11V0Z" transform="translate(3708 631) rotate(180)" />
      <rect id="Rectangle_23" data-name="Rectangle 23" width="2" height="11" transform="translate(3700 620)" />
      <path id="Path_8" data-name="Path 8" d="M.156-.031,2.125-1.687,2,2H0Z" transform="translate(3683 619)" />
      <path id="Path_9" data-name="Path 9" d="M1.969-.031,0-1.687.125,2h2Z" transform="translate(3702.875 619)" />
    </g>
  </g>
</svg>